HIERARCHY
ROOT hip
{
  OFFSET 5.51535 103.731 -2.80141
  CHANNELS 6 Xposition Yposition Zposition Zrotation Xrotation Yrotation
  JOINT abdomen
  {
    OFFSET 0 -1.186 -1.5018
    CHANNELS 6 Xposition Yposition Zposition Zrotation Xrotation Yrotation
    JOINT abdomen2
    {
      OFFSET 0 9.964 0.2134
      CHANNELS 6 Xposition Yposition Zposition Zrotation Xrotation Yrotation
      JOINT chest
      {
        OFFSET 0 13.134 -3.2573
        CHANNELS 6 Xposition Yposition Zposition Zrotation Xrotation Yrotation
        JOINT neck
        {
          OFFSET 0 20.686 -1.6905
          CHANNELS 6 Xposition Yposition Zposition Zrotation Xrotation Yrotation
          JOINT head
          {
            OFFSET 0 7.23801 -0.1237
            CHANNELS 6 Xposition Yposition Zposition Zrotation Xrotation Yrotation
            End Site
            {
              OFFSET 0 0 0
            }
          }
        }
        JOINT lCollar
        {
          OFFSET 1.7069 20.075 5.0056
          CHANNELS 6 Xposition Yposition Zposition Zrotation Xrotation Yrotation
          JOINT lShldr
          {
            OFFSET 13.6458 -0.0470195 -4.849
            CHANNELS 6 Xposition Yposition Zposition Zrotation Xrotation Yrotation
            JOINT lForeArm
            {
              OFFSET 28.3255 -0.97589 2.2888
              CHANNELS 6 Xposition Yposition Zposition Zrotation Xrotation Yrotation
              JOINT lHand
              {
                OFFSET 22.1583 -0.529998 10.8316
                CHANNELS 6 Xposition Yposition Zposition Zrotation Xrotation Yrotation
                JOINT lThumb1
                {
                  OFFSET 0.786 0.111997 2.5817
                  CHANNELS 6 Xposition Yposition Zposition Zrotation Xrotation Yrotation
                  JOINT lThumb2
                  {
                    OFFSET 0.360097 -0.877999 4.2331
                    CHANNELS 6 Xposition Yposition Zposition Zrotation Xrotation Yrotation
                    JOINT lThumb2_End
                    {
                      OFFSET 1.8127 -1.21601 2.2227
                      CHANNELS 6 Xposition Yposition Zposition Zrotation Xrotation Yrotation
                      End Site
                      {
                        OFFSET 0.0180981 -0.012195 0.0222007
                      }
                    }
                  }
                }
                JOINT lCarpal1
                {
                  OFFSET 0.9571 1.114 1.7695
                  CHANNELS 6 Xposition Yposition Zposition Zrotation Xrotation Yrotation
                  JOINT lIndex1
                  {
                    OFFSET 4.12461 0.486992 4.1451
                    CHANNELS 6 Xposition Yposition Zposition Zrotation Xrotation Yrotation
                    JOINT lIndex2
                    {
                      OFFSET 3.4052 -1.45401 2.7682
                      CHANNELS 6 Xposition Yposition Zposition Zrotation Xrotation Yrotation
                      JOINT lIndex2_End
                      {
                        OFFSET 1.45309 -1.79499 1.2713
                        CHANNELS 6 Xposition Yposition Zposition Zrotation Xrotation Yrotation
                        End Site
                        {
                          OFFSET 0.0144979 -0.0179083 0.0126995
                        }
                      }
                    }
                  }
                  JOINT lMid1
                  {
                    OFFSET 5.6954 0.209987 2.1184
                    CHANNELS 6 Xposition Yposition Zposition Zrotation Xrotation Yrotation
                    JOINT lMid2
                    {
                      OFFSET 3.9766 -1.53999 2.3863
                      CHANNELS 6 Xposition Yposition Zposition Zrotation Xrotation Yrotation
                      JOINT lMid2_End
                      {
                        OFFSET 1.4042 -1.926 1.125
                        CHANNELS 6 Xposition Yposition Zposition Zrotation Xrotation Yrotation
                        End Site
                        {
                          OFFSET 0.013999 -0.0193044 0.011301
                        }
                      }
                    }
                  }
                }
                JOINT lCarpal2
                {
                  OFFSET 2.0956 0.66 -0.3894
                  CHANNELS 6 Xposition Yposition Zposition Zrotation Xrotation Yrotation
                  JOINT lRing1
                  {
                    OFFSET 5.0395 -0.090013 2.4971
                    CHANNELS 6 Xposition Yposition Zposition Zrotation Xrotation Yrotation
                    JOINT lRing2
                    {
                      OFFSET 3.7921 -1.55199 1.4806
                      CHANNELS 6 Xposition Yposition Zposition Zrotation Xrotation Yrotation
                      JOINT lRing2_End
                      {
                        OFFSET 1.4655 -1.808 0.9609
                        CHANNELS 6 Xposition Yposition Zposition Zrotation Xrotation Yrotation
                        End Site
                        {
                          OFFSET 0.0147015 -0.0181014 0.00959957
                        }
                      }
                    }
                  }
                  JOINT lPinky1
                  {
                    OFFSET 4.9141 -1.269 0.3591
                    CHANNELS 6 Xposition Yposition Zposition Zrotation Xrotation Yrotation
                    JOINT lPinky2
                    {
                      OFFSET 3.1477 -1.685 0.8462
                      CHANNELS 6 Xposition Yposition Zposition Zrotation Xrotation Yrotation
                      JOINT lPinky2_End
                      {
                        OFFSET 0.805498 -1.58501 0.795499
                        CHANNELS 6 Xposition Yposition Zposition Zrotation Xrotation Yrotation
                        End Site
                        {
                          OFFSET 0.00809703 -0.0157944 0.00799848
                        }
                      }
                    }
                  }
                }
              }
            }
          }
        }
        JOINT rCollar
        {
          OFFSET -1.7069 20.075 5.0056
          CHANNELS 6 Xposition Yposition Zposition Zrotation Xrotation Yrotation
          JOINT rShldr
          {
            OFFSET -13.6458 -0.0470107 -4.849
            CHANNELS 6 Xposition Yposition Zposition Zrotation Xrotation Yrotation
            JOINT rForeArm
            {
              OFFSET -28.3255 -0.975895 2.2888
              CHANNELS 6 Xposition Yposition Zposition Zrotation Xrotation Yrotation
              JOINT rHand
              {
                OFFSET -22.1583 -0.530007 10.8316
                CHANNELS 6 Xposition Yposition Zposition Zrotation Xrotation Yrotation
                JOINT rThumb1
                {
                  OFFSET -0.785997 0.112005 2.5817
                  CHANNELS 6 Xposition Yposition Zposition Zrotation Xrotation Yrotation
                  JOINT rThumb2
                  {
                    OFFSET -0.360106 -0.877994 4.2331
                    CHANNELS 6 Xposition Yposition Zposition Zrotation Xrotation Yrotation
                    JOINT rThumb2_End
                    {
                      OFFSET -1.8127 -1.216 2.2227
                      CHANNELS 6 Xposition Yposition Zposition Zrotation Xrotation Yrotation
                      End Site
                      {
                        OFFSET -0.0180972 -0.0121973 0.0222005
                      }
                    }
                  }
                }
                JOINT rCarpal1
                {
                  OFFSET -0.9571 1.114 1.7695
                  CHANNELS 6 Xposition Yposition Zposition Zrotation Xrotation Yrotation
                  JOINT rIndex1
                  {
                    OFFSET -4.1246 0.487011 4.1451
                    CHANNELS 6 Xposition Yposition Zposition Zrotation Xrotation Yrotation
                    JOINT rIndex2
                    {
                      OFFSET -3.4052 -1.45401 2.7682
                      CHANNELS 6 Xposition Yposition Zposition Zrotation Xrotation Yrotation
                      JOINT rIndex2_End
                      {
                        OFFSET -1.4531 -1.795 1.2713
                        CHANNELS 6 Xposition Yposition Zposition Zrotation Xrotation Yrotation
                        End Site
                        {
                          OFFSET -0.0145077 -0.0180048 0.0127017
                        }
                      }
                    }
                  }
                  JOINT rMid1
                  {
                    OFFSET -5.6954 0.210002 2.1184
                    CHANNELS 6 Xposition Yposition Zposition Zrotation Xrotation Yrotation
                    JOINT rMid2
                    {
                      OFFSET -3.9766 -1.54 2.3863
                      CHANNELS 6 Xposition Yposition Zposition Zrotation Xrotation Yrotation
                      JOINT rMid2_End
                      {
                        OFFSET -1.4042 -1.926 1.125
                        CHANNELS 6 Xposition Yposition Zposition Zrotation Xrotation Yrotation
                        End Site
                        {
                          OFFSET -0.0139948 -0.0192916 0.0112994
                        }
                      }
                    }
                  }
                }
                JOINT rCarpal2
                {
                  OFFSET -2.0956 0.66 -0.3894
                  CHANNELS 6 Xposition Yposition Zposition Zrotation Xrotation Yrotation
                  JOINT rRing1
                  {
                    OFFSET -5.03951 -0.0899879 2.4971
                    CHANNELS 6 Xposition Yposition Zposition Zrotation Xrotation Yrotation
                    JOINT rRing2
                    {
                      OFFSET -3.7921 -1.55201 1.4806
                      CHANNELS 6 Xposition Yposition Zposition Zrotation Xrotation Yrotation
                      JOINT rRing2_End
                      {
                        OFFSET -1.4655 -1.808 0.960901
                        CHANNELS 6 Xposition Yposition Zposition Zrotation Xrotation Yrotation
                        End Site
                        {
                          OFFSET -0.0146934 -0.0180999 0.00959832
                        }
                      }
                    }
                  }
                  JOINT rPinky1
                  {
                    OFFSET -4.91411 -1.26899 0.359202
                    CHANNELS 6 Xposition Yposition Zposition Zrotation Xrotation Yrotation
                    JOINT rPinky2
                    {
                      OFFSET -3.14769 -1.68501 0.846199
                      CHANNELS 6 Xposition Yposition Zposition Zrotation Xrotation Yrotation
                      JOINT rPinky2_End
                      {
                        OFFSET -0.805498 -1.585 0.7955
                        CHANNELS 6 Xposition Yposition Zposition Zrotation Xrotation Yrotation
                        End Site
                        {
                          OFFSET -0.00810035 -0.0158035 0.00800029
                        }
                      }
                    }
                  }
                }
              }
            }
          }
        }
      }
    }
  }
  JOINT lThigh
  {
    OFFSET 8.367 -8.2066 0.5982
    CHANNELS 6 Xposition Yposition Zposition Zrotation Xrotation Yrotation
    JOINT lShin
    {
      OFFSET 2.1923 -43.463 -0.4932
      CHANNELS 6 Xposition Yposition Zposition Zrotation Xrotation Yrotation
      JOINT lFoot
      {
        OFFSET 0.733301 -45.8593 -2.6451
        CHANNELS 6 Xposition Yposition Zposition Zrotation Xrotation Yrotation
        End Site
        {
          OFFSET 2.6618 -4.2699 12.3931
        }
      }
    }
  }
  JOINT rThigh
  {
    OFFSET -8.367 -8.2066 0.5982
    CHANNELS 6 Xposition Yposition Zposition Zrotation Xrotation Yrotation
    JOINT rShin
    {
      OFFSET -2.1923 -43.463 -0.4931
      CHANNELS 6 Xposition Yposition Zposition Zrotation Xrotation Yrotation
      JOINT rFoot
      {
        OFFSET -0.733299 -45.8593 -2.6451
        CHANNELS 6 Xposition Yposition Zposition Zrotation Xrotation Yrotation
        End Site
        {
          OFFSET -2.6618 -4.2699 12.3931
        }
      }
    }
  }
}
MOTION
Frames:	4
Frame Time:	0.0333333
-7.50324 127.133 26.1109 0.991475 36.6236 -106.887 -2.81629e-006 -1.18599 -1.5018 5.04843 2.47565 -3.92039 -1.56073e-007 9.964 0.2134 10.267 4.59061 -8.05356 -3.31802e-006 13.134 -3.2573 10.267 4.5906 -8.05353 -1.9587e-006 20.686 -1.6905 -0.353413 7.5815 -8.70921 3.98716e-006 7.23801 -0.123695 26.0442 5.26829 1.31223 1.7069 20.075 5.0056 13.2669 -1.66141 -17.9495 13.6458 -0.0470147 -4.849 -61.224 14.8882 -70.8447 28.3255 -0.975885 2.28881 -12.7798 -2.28806 -33.5341 22.1583 -0.529996 10.8316 -48.0618 -38.5002 -37.1685 0.786002 0.111998 2.5817 19.8199 49.8971 -12.7653 0.360096 -0.878 4.2331 -0.607549 -0.0670372 -1.11246 1.81269 -1.21602 2.22269 6.48485 1.48404 12.0601 0.9571 1.114 1.7695 -7.1726e-032 5.1684e-015 7.95139e-016 4.1246 0.486991 4.1451 25.3137 -2.32681 12.3167 3.4052 -1.45401 2.7682 -38.166 10.2046 18.8826 1.4531 -1.79499 1.2713 -43.8637 10.5448 22.0101 5.6954 0.209986 2.1184 8.56808 2.04444 8.07568 3.9766 -1.53999 2.3863 -43.8283 12.176 22.7531 1.4042 -1.926 1.125 -35.9807 11.4057 18.2634 2.0956 0.66 -0.3894 -7.1726e-032 5.1684e-015 7.95139e-016 5.03951 -0.0900158 2.49711 -10.2691 -1.21445 6.57039 3.7921 -1.55199 1.48059 -29.3821 10.8531 16.2748 1.4655 -1.808 0.960902 -30.5916 11.0934 17.0126 4.9141 -1.269 0.359102 -19.0783 -1.1842 4.74785 3.1477 -1.685 0.846202 -23.0826 10.1411 12.4587 0.805498 -1.58501 0.795494 -23.0185 10.1216 12.4206 -1.7069 20.075 5.0056 -23.823 -0.163979 0.0182063 -13.6458 -0.0470135 -4.849 22.7336 -34.2507 54.6042 -28.3255 -0.975888 2.28879 -12.9028 2.87797 3.54624 -22.1583 -0.530014 10.8316 135.651 -51.2174 121.099 -0.786005 0.112005 2.5817 -19.2121 49.9311 17.782 -0.3601 -0.877995 4.2331 -0.518264 0.461419 -1.59089 -1.81269 -1.216 2.2227 -2.77348 2.81314 -9.01341 -0.9571 1.114 1.7695 6.36111e-015 -1.59028e-015 7.15625e-015 -4.12461 0.487011 4.1451 -23.6186 3.40223 -15.5055 -3.4052 -1.45401 2.76819 39.4979 10.0979 -9.27476 -1.4531 -1.795 1.2713 38.8029 9.98599 -9.06155 -5.69541 0.210002 2.11841 -1.04219 5.48646 -10.0637 -3.9766 -1.54 2.3863 52.3089 13.53 -14.1045 -1.4042 -1.926 1.125 44.0035 12.3921 -11.1857 -2.0956 0.66 -0.3894 6.36111e-015 -1.59028e-015 7.15625e-015 -5.03951 -0.0899867 2.4971 16.4925 0.275087 -5.65909 -3.7921 -1.55201 1.4806 37.334 11.9096 -10.7863 -1.4655 -1.80801 0.960897 38.6321 12.1694 -11.2725 -4.91411 -1.26899 0.359201 24.6637 -0.263216 -2.07538 -3.1477 -1.68501 0.8462 30.529 11.3149 -8.19454 -0.805501 -1.585 0.7955 30.4594 11.296 -8.16992 8.367 -8.2066 0.5982 6.29374 -4.57892 -5.19217 2.1923 -43.4631 -0.493208 0.175904 -2.6395 -0.627832 0.733306 -45.8593 -2.64511 -11.6072 7.82392 -1.4045 -8.36699 -8.2066 0.598199 22.3527 -69.0356 55.4537 -2.192 -43.463 -0.494576 107.222 77.9067 -106.401 -0.733299 -45.8593 -2.64509 0.378543 1.88458 -4.02106 
-12.2005 127.608 28.6292 7.40301 36.3865 -115.398 1.33176e-006 -1.186 -1.5018 5.27515 2.23109 -4.22608 9.04645e-007 9.964 0.213399 10.7107 4.05796 -8.64777 -1.20399e-006 13.134 -3.2573 10.7107 4.05797 -8.64777 -7.75058e-007 20.686 -1.6905 -0.262812 10.6407 -6.5059 -1.35835e-006 7.23801 -0.1237 26.0373 5.02817 2.76498 1.7069 20.075 5.0056 12.8181 -1.67808 -18.1387 13.6458 -0.0470181 -4.849 -61.0679 14.951 -70.5534 28.3255 -0.975894 2.28879 -13.0343 -1.0724 -33.2549 22.1583 -0.529998 10.8316 -50.5058 -38.3751 -39.6315 0.786002 0.111999 2.58169 19.8198 49.8971 -12.7653 0.360097 -0.877999 4.2331 -0.60754 -0.0670527 -1.11245 1.8127 -1.21601 2.22269 6.4848 1.48397 12.0602 0.9571 1.114 1.7695 8.27607e-033 3.97569e-016 -1.19271e-015 4.12461 0.48699 4.14511 25.3137 -2.32684 12.3167 3.4052 -1.454 2.76819 -38.166 10.2045 18.8826 1.4531 -1.79499 1.2713 -43.8637 10.5448 22.0101 5.69541 0.209986 2.1184 8.56808 2.04438 8.07569 3.9766 -1.53999 2.3863 -43.8283 12.176 22.7531 1.4042 -1.926 1.125 -35.9807 11.4059 18.2633 2.0956 0.66 -0.3894 8.27607e-033 3.97569e-016 -1.19271e-015 5.0395 -0.0900138 2.4971 -10.2691 -1.21448 6.57041 3.7921 -1.55199 1.4806 -29.3821 10.8531 16.2748 1.4655 -1.808 0.960904 -30.5916 11.0934 17.0125 4.9141 -1.269 0.359104 -19.0782 -1.1841 4.7479 3.1477 -1.685 0.846203 -23.0825 10.1413 12.4587 0.805498 -1.58501 0.7955 -23.0185 10.1216 12.4206 -1.7069 20.075 5.0056 -21.7638 -0.141131 0.0499818 -13.6458 -0.0470067 -4.849 20.674 -34.7155 54.0293 -28.3255 -0.975893 2.28881 -14.0031 5.76932 5.14689 -22.1583 -0.530006 10.8316 139.598 -47.8757 124.27 -0.785997 0.112005 2.5817 -19.2122 49.9311 17.7821 -0.3601 -0.877996 4.2331 -0.51825 0.461425 -1.59089 -1.8127 -1.216 2.2227 -2.77347 2.81314 -9.01341 -0.9571 1.114 1.7695 1.76556e-031 3.18055e-015 -3.18055e-015 -4.12461 0.487011 4.1451 -23.6185 3.40212 -15.5055 -3.4052 -1.45401 2.7682 39.4979 10.0978 -9.27471 -1.4531 -1.795 1.2713 38.8029 9.98601 -9.06156 -5.6954 0.210001 2.1184 -1.04215 5.48645 -10.0637 -3.9766 -1.54 2.3863 52.3089 13.53 -14.1045 -1.4042 -1.926 1.125 44.0035 12.3921 -11.1857 -2.0956 0.66 -0.3894 1.76556e-031 3.18055e-015 -3.18055e-015 -5.03951 -0.0899881 2.4971 16.4926 0.275089 -5.65912 -3.7921 -1.55201 1.4806 37.334 11.9096 -10.7863 -1.4655 -1.808 0.960906 38.6321 12.1694 -11.2725 -4.91411 -1.26899 0.359202 24.6638 -0.263178 -2.07541 -3.1477 -1.68501 0.8462 30.529 11.3149 -8.19452 -0.805499 -1.585 0.795495 30.4594 11.296 -8.16992 8.367 -8.2066 0.598202 6.44598 -5.15296 -3.56989 2.19231 -43.4631 -0.493213 0.181603 -2.63796 -0.7203 0.733306 -45.8593 -2.64511 -12.4782 7.62005 -0.906848 -8.367 -8.20659 0.598194 20.752 -70.5945 53.1988 -2.1903 -43.4631 -0.499878 123.454 76.0527 -123.656 -0.73328 -45.8593 -2.64511 -1.67149 -0.0888888 -4.33648 
-17.2183 128.052 30.4084 13.7607 35.2281 -123.683 5.4173e-007 -1.186 -1.5018 5.42381 1.99222 -4.75197 1.28061e-006 9.964 0.213399 11.002 3.5196 -9.67799 -1.11612e-006 13.134 -3.2573 11.002 3.51959 -9.67798 3.54943e-007 20.686 -1.6905 -0.134346 14.3275 -3.46089 -3.0281e-007 7.23801 -0.1237 26.1214 4.19179 4.36745 1.7069 20.075 5.0056 12.711 -1.6081 -17.3598 13.6458 -0.0470196 -4.849 -61.0695 15.2782 -70.385 28.3255 -0.975891 2.28881 -12.8865 0.00405087 -32.2777 22.1583 -0.529985 10.8316 -53.3895 -37.9745 -42.3714 0.786004 0.111997 2.5817 19.8198 49.8971 -12.7653 0.360096 -0.878002 4.2331 -0.607613 -0.067076 -1.11244 1.8127 -1.21601 2.2227 6.48488 1.48412 12.0601 0.9571 1.114 1.7695 -3.18055e-015 0 7.95139e-016 4.1246 0.486994 4.1451 25.3137 -2.32685 12.3167 3.4052 -1.45401 2.7682 -38.166 10.2045 18.8826 1.4531 -1.79499 1.2713 -43.8637 10.5447 22.01 5.6954 0.20999 2.11839 8.56806 2.04434 8.07569 3.9766 -1.53999 2.3863 -43.8283 12.176 22.7531 1.4042 -1.926 1.12499 -35.9807 11.406 18.2633 2.0956 0.66 -0.3894 -3.18055e-015 0 7.95139e-016 5.0395 -0.0900122 2.4971 -10.2691 -1.2145 6.57039 3.7921 -1.55199 1.4806 -29.3821 10.8531 16.2748 1.4655 -1.808 0.960893 -30.5916 11.0933 17.0125 4.91411 -1.26901 0.359106 -19.0782 -1.18413 4.7479 3.1477 -1.685 0.846199 -23.0825 10.1413 12.4587 0.805499 -1.58501 0.795497 -23.0185 10.1216 12.4205 -1.7069 20.075 5.0056 -19.2598 -0.132508 1.147 -13.6458 -0.0470107 -4.849 19.3414 -35.1007 54.3344 -28.3255 -0.975905 2.2888 -15.1127 7.76572 5.34473 -22.1583 -0.530013 10.8316 140.698 -45.428 124.416 -0.786003 0.112005 2.5817 -19.2121 49.9312 17.782 -0.360102 -0.877994 4.2331 -0.518247 0.461418 -1.59088 -1.81269 -1.216 2.2227 -2.77348 2.81314 -9.0134 -0.9571 1.114 1.7695 3.18055e-015 -3.18055e-015 -3.18055e-015 -4.12461 0.48701 4.14511 -23.6185 3.40214 -15.5055 -3.4052 -1.45401 2.7682 39.4979 10.0978 -9.27469 -1.4531 -1.795 1.27129 38.8029 9.98603 -9.06154 -5.6954 0.210001 2.1184 -1.04218 5.48646 -10.0637 -3.9766 -1.54 2.3863 52.309 13.5299 -14.1045 -1.4042 -1.926 1.125 44.0035 12.3921 -11.1857 -2.0956 0.66 -0.3894 3.18055e-015 -3.18055e-015 -3.18055e-015 -5.03951 -0.0899875 2.4971 16.4925 0.275093 -5.65913 -3.7921 -1.55201 1.4806 37.334 11.9097 -10.7863 -1.4655 -1.80801 0.960897 38.6321 12.1694 -11.2725 -4.91411 -1.26899 0.359204 24.6637 -0.263143 -2.07542 -3.14769 -1.68501 0.846193 30.529 11.3149 -8.1945 -0.805499 -1.585 0.795498 30.4594 11.2959 -8.16996 8.36701 -8.20662 0.598195 6.95645 -5.63727 -1.87604 2.19231 -43.463 -0.493205 0.190467 -2.54275 -0.739334 0.733302 -45.8593 -2.6451 -12.6414 7.91296 -1.13166 -8.36701 -8.2066 0.598199 18.0719 -71.9622 49.7053 -2.18729 -43.4631 -0.50589 135.105 74.1436 -135.899 -0.733293 -45.8593 -2.64509 -3.15743 -1.84838 -5.00345 
-22.4316 128.37 31.4841 19.5995 33.3366 -131.903 1.77359e-006 -1.186 -1.5018 5.56687 1.82097 -5.16733 -7.24549e-008 9.964 0.213401 11.2815 3.12497 -10.493 1.75113e-006 13.134 -3.2573 11.2815 3.12497 -10.493 -2.5604e-007 20.686 -1.6905 -0.0110666 16.893 -0.666196 -7.73714e-007 7.23801 -0.123699 25.9333 3.56842 5.70226 1.7069 20.075 5.0056 13.2256 -1.56786 -16.2936 13.6458 -0.0470187 -4.849 -61.3306 16.3916 -70.9435 28.3255 -0.975905 2.2888 -11.9289 0.48822 -30.9097 22.1583 -0.52999 10.8316 -56.5874 -37.2296 -45.1315 0.786006 0.111994 2.58171 19.8198 49.8971 -12.7653 0.360099 -0.878002 4.2331 -0.60765 -0.0671583 -1.11238 1.8127 -1.21601 2.2227 6.48488 1.48413 12.0601 0.9571 1.114 1.7695 6.36111e-015 1.59028e-015 -7.95139e-016 4.12461 0.48699 4.14511 25.3137 -2.32692 12.3168 3.4052 -1.45401 2.76821 -38.166 10.2044 18.8825 1.4531 -1.79499 1.27131 -43.8637 10.5448 22.0101 5.6954 0.209988 2.1184 8.56812 2.04449 8.07569 3.9766 -1.53999 2.3863 -43.8283 12.1759 22.7531 1.4042 -1.926 1.12499 -35.9807 11.406 18.2633 2.0956 0.66 -0.3894 6.36111e-015 1.59028e-015 -7.95139e-016 5.0395 -0.0900144 2.49711 -10.2691 -1.2146 6.57037 3.7921 -1.55199 1.4806 -29.3821 10.8531 16.2749 1.4655 -1.808 0.960906 -30.5916 11.0935 17.0125 4.91411 -1.26901 0.359107 -19.0782 -1.18414 4.74789 3.1477 -1.685 0.846201 -23.0825 10.1413 12.4587 0.805498 -1.58501 0.795492 -23.0185 10.1216 12.4205 -1.7069 20.075 5.0056 -16.6524 -0.122501 2.18159 -13.6458 -0.047013 -4.849 18.2801 -36.0154 54.7199 -28.3255 -0.975903 2.2888 -14.8073 8.21958 5.3523 -22.1583 -0.530005 10.8316 139.412 -44.6545 122.568 -0.786005 0.112005 2.58171 -19.2122 49.9312 17.7821 -0.3601 -0.877998 4.2331 -0.518253 0.461425 -1.59089 -1.81269 -1.216 2.2227 -2.77348 2.81314 -9.01339 -0.9571 1.114 1.7695 6.36111e-015 -3.18055e-015 1.59028e-015 -4.12461 0.487011 4.1451 -23.6185 3.40215 -15.5055 -3.4052 -1.45401 2.76819 39.4979 10.0978 -9.27472 -1.4531 -1.795 1.2713 38.8029 9.9861 -9.06156 -5.69541 0.21 2.11841 -1.04217 5.48646 -10.0637 -3.9766 -1.54 2.3863 52.309 13.5299 -14.1045 -1.4042 -1.926 1.125 44.0035 12.3921 -11.1857 -2.0956 0.66 -0.3894 6.36111e-015 -3.18055e-015 1.59028e-015 -5.03951 -0.0899876 2.4971 16.4925 0.275157 -5.65914 -3.79209 -1.55201 1.48059 37.3341 11.9096 -10.7863 -1.4655 -1.80801 0.960896 38.6321 12.1695 -11.2725 -4.9141 -1.26899 0.359197 24.6638 -0.26324 -2.07539 -3.14769 -1.68501 0.846194 30.529 11.3149 -8.19449 -0.805501 -1.58499 0.795501 30.4595 11.2959 -8.16995 8.367 -8.2066 0.598199 7.75615 -5.75834 -1.3679 2.19232 -43.4631 -0.493209 0.201525 -2.60478 -0.654602 0.733308 -45.8593 -2.64511 -11.4174 8.01826 -1.14958 -8.367 -8.2066 0.5982 14.8444 -72.4877 45.3096 -2.19557 -43.463 -0.485987 142.417 72.1072 -143.551 -0.733276 -45.8593 -2.64513 -4.10133 -2.86983 -5.87855 
